<?xml version="1.0" standalone="no"?>
<!DOCTYPE svg PUBLIC "-//W3C//DTD SVG 20010904//EN"
 "http://www.w3.org/TR/2001/REC-SVG-20010904/DTD/svg10.dtd">
<svg version="1.0" xmlns="http://www.w3.org/2000/svg"
 width="904.000000pt" height="276.000000pt" viewBox="0 0 904.000000 276.000000"
 preserveAspectRatio="xMidYMid meet">

<g transform="translate(0.000000,276.000000) scale(0.100000,-0.100000)"
fill="#000000" stroke="none">
<path d="M650 1742 c0 -356 2 -363 74 -432 l37 -35 223 -3 223 -3 28 32 c22
28 26 40 22 72 -3 22 -12 46 -20 54 -24 24 -102 34 -256 32 -125 -2 -145 0
-153 15 -5 9 -13 14 -18 11 -14 -9 -5 327 9 353 26 48 60 55 258 50 101 -2
183 0 183 4 0 4 -12 8 -26 8 -14 0 -23 4 -19 10 3 6 17 7 30 4 12 -3 26 -1 30
6 4 7 0 10 -11 8 -12 -2 -19 3 -18 13 1 13 -8 15 -52 13 -61 -4 -75 7 -42 31
l23 17 -22 -7 c-14 -4 -23 -2 -23 4 0 17 40 13 46 -4 4 -8 13 -15 22 -15 13 0
12 3 -3 20 -18 20 -18 21 1 14 10 -4 27 -15 36 -24 9 -10 28 -16 42 -15 14 2
26 -1 26 -6 0 -5 -4 -9 -10 -9 -5 0 -10 -5 -10 -11 0 -6 6 -9 14 -6 12 5 32
-12 51 -43 6 -12 4 -11 -11 1 -34 28 -44 32 -37 12 11 -29 52 -63 71 -57 9 2
7 -1 -5 -7 l-22 -11 24 -37 c33 -50 46 -112 32 -159 -6 -20 -16 -40 -22 -44
-6 -5 -6 -11 3 -20 6 -6 12 -8 12 -4 0 5 8 2 17 -5 9 -8 14 -9 10 -3 -3 6 4
21 17 33 21 20 24 20 30 5 4 -12 2 -15 -9 -10 -22 8 -18 -8 9 -33 18 -17 25
-19 29 -9 3 7 3 -2 0 -19 -4 -23 -2 -33 7 -33 10 0 10 -3 0 -15 -8 -10 -9 -15
-2 -15 6 0 9 -7 6 -15 -11 -27 -24 -16 -31 28 -4 23 -6 45 -5 50 1 4 -5 7 -13
7 -18 0 -19 -4 -2 -30 10 -17 9 -22 -3 -30 -10 -6 -16 -5 -19 3 -6 19 -20 24
-48 19 -22 -4 -24 -7 -11 -16 9 -6 25 -29 37 -51 41 -76 20 -173 -52 -247 -46
-46 -52 -47 -452 -52 -208 -2 -320 -7 -339 -15 -20 -8 -31 -8 -36 -1 -9 14
-70 20 -70 7 0 -7 -4 -7 -12 1 -7 7 -20 12 -31 12 -10 0 -16 4 -13 9 3 5 -3
11 -14 14 -28 7 -34 -8 -13 -32 12 -14 20 -17 29 -10 8 6 14 5 18 -7 4 -11 15
-14 41 -11 42 6 46 -7 8 -21 -25 -9 -26 -11 -9 -17 11 -5 21 -3 27 6 6 11 11
11 21 1 16 -16 28 -15 28 4 0 8 -4 12 -10 9 -5 -3 -10 -1 -10 5 0 6 10 10 23
8 15 -2 22 -10 23 -25 1 -13 -4 -23 -10 -24 -11 0 22 -17 37 -18 12 -1 8 47
-5 52 -8 4 -7 6 3 6 10 1 19 -10 23 -24 4 -15 11 -23 17 -19 8 4 9 -1 4 -17
-7 -21 -6 -22 9 -10 11 9 14 21 10 35 -6 21 -6 21 11 1 9 -11 14 -14 10 -7
-11 21 13 13 30 -10 13 -19 18 -21 34 -11 17 11 20 9 26 -18 9 -39 -3 -50 -22
-22 -18 26 -30 30 -30 8 0 -8 4 -12 8 -10 4 3 9 -2 13 -10 3 -8 2 -14 -2 -14
-20 3 -32 -3 -32 -16 0 -13 54 -15 425 -15 l424 0 6 33 c3 17 5 226 3 462 -3
424 -3 431 -26 480 -27 59 -56 91 -97 111 -26 13 -28 13 -12 0 10 -8 18 -18
19 -23 0 -4 4 -7 10 -5 5 1 7 -2 4 -7 -3 -5 1 -14 9 -21 8 -7 15 -20 15 -29 0
-9 6 -23 13 -30 10 -11 10 -13 0 -7 -18 10 -16 -15 3 -42 22 -31 11 -39 -12
-9 l-19 23 -25 -23 c-13 -13 -29 -23 -35 -23 -5 0 1 7 13 16 12 8 20 20 17 25
-4 5 -1 9 4 9 16 0 13 31 -5 51 -11 12 -12 19 -4 24 7 4 14 -2 17 -14 6 -23
23 -29 23 -7 0 7 -12 21 -26 31 -15 9 -23 12 -20 6 12 -19 -13 -12 -34 9 -23
23 -26 42 -6 34 11 -4 13 0 9 15 -3 12 -17 25 -32 29 -22 6 -181 7 -601 4 -30
0 -67 1 -82 3 l-28 3 0 -316z m90 283 c0 -8 4 -15 10 -15 5 0 7 7 4 15 -4 10
0 15 11 15 11 0 15 -5 11 -16 -3 -8 -2 -12 4 -9 5 3 32 3 61 -1 28 -4 45 -10
39 -14 -8 -5 -8 -10 -2 -14 5 -3 12 1 16 9 6 17 111 22 120 6 4 -5 21 -4 43 2
28 9 37 9 41 -1 2 -7 7 -10 12 -7 4 3 10 -2 14 -10 3 -8 1 -17 -5 -20 -5 -4
-6 -11 -3 -17 5 -7 1 -9 -9 -5 -12 5 -17 1 -17 -13 0 -10 8 -21 18 -23 9 -3
-1 -3 -23 -2 -46 3 -97 24 -89 36 8 13 -8 11 -40 -6 -26 -14 -31 -14 -48 1
-16 15 -18 15 -18 2 0 -9 -7 -19 -16 -22 -8 -3 -12 -2 -9 4 3 6 0 10 -9 10 -8
0 -16 3 -19 8 -2 4 -2 1 -1 -5 3 -12 -8 -17 -28 -14 -4 0 -4 -7 -1 -16 5 -13
2 -15 -11 -10 -15 6 -18 3 -13 -19 3 -16 0 -27 -9 -31 -8 -3 -12 -9 -9 -13 6
-10 -20 -61 -28 -54 -3 4 -4 -5 -1 -19 3 -19 -1 -29 -15 -37 -13 -7 -22 -7
-26 0 -3 5 -1 10 4 10 6 0 11 9 11 20 0 11 -5 20 -10 20 -6 0 -5 8 2 20 10 15
10 26 0 53 -15 42 -15 60 -1 51 6 -3 3 5 -6 20 -15 22 -15 29 -4 42 11 13 10
17 -4 26 -10 5 -15 14 -12 19 4 5 10 7 15 4 5 -3 11 4 15 15 7 23 35 27 35 5z
m660 -80 c7 -8 8 -15 2 -15 -5 0 -15 7 -22 15 -7 8 -8 15 -2 15 5 0 15 -7 22
-15z m-200 -10 c0 -8 -4 -15 -10 -15 -5 0 -7 7 -4 15 4 8 8 15 10 15 2 0 4 -7
4 -15z m-50 -5 c0 -5 -7 -10 -16 -10 -8 0 -12 5 -9 10 3 6 10 10 16 10 5 0 9
-4 9 -10z m-165 -10 c3 -5 1 -10 -4 -10 -6 0 -11 5 -11 10 0 6 2 10 4 10 3 0
8 -4 11 -10z m190 -10 c3 -5 1 -10 -4 -10 -6 0 -11 5 -11 10 0 6 2 10 4 10 3
0 8 -4 11 -10z m285 -94 c0 -15 -14 -35 -21 -30 -15 9 -10 34 6 34 8 0 15 -2
15 -4z m20 -68 c0 -24 -26 -23 -33 1 -3 15 0 19 14 18 11 -1 19 -9 19 -19z
m-754 -67 c-4 -5 0 -12 6 -14 8 -3 6 -6 -5 -6 -11 -1 -15 -6 -11 -13 4 -6 3
-8 -4 -5 -12 8 -4 47 10 47 5 0 7 -4 4 -9z m759 -41 c3 -6 -1 -7 -9 -4 -18 7
-21 14 -7 14 6 0 13 -4 16 -10z m-748 -87 c0 -10 -5 -21 -11 -25 -21 -14 -26
-8 -14 17 13 29 25 33 25 8z m18 -43 c-3 -5 3 -18 14 -29 14 -14 16 -22 8 -30
-6 -6 -7 -12 -1 -12 5 -1 16 -2 24 -3 8 0 16 -10 16 -21 3 -38 4 -40 14 -25 6
10 10 11 10 3 0 -7 6 -13 14 -13 21 0 46 -28 40 -45 -8 -21 -22 -19 -29 5 -3
11 -11 20 -16 20 -6 0 -7 -6 -2 -12 11 -19 12 -37 2 -44 -5 -3 -9 0 -9 7 0 7
-11 10 -30 7 -23 -3 -27 -2 -19 8 7 8 6 14 -2 20 -8 4 -9 3 -5 -4 4 -7 3 -12
-2 -12 -14 0 -33 26 -25 33 3 4 1 7 -6 7 -7 0 -9 5 -6 10 3 6 -3 10 -14 10
-23 0 -28 18 -8 26 8 3 14 10 14 17 0 7 4 20 8 30 5 12 2 17 -9 17 -9 0 -16 5
-16 11 0 5 4 7 10 4 6 -3 7 1 4 9 -4 11 0 16 11 16 9 0 14 -4 10 -10z m-35
-75 c0 -5 -5 -3 -10 5 -5 8 -10 20 -10 25 0 6 5 3 10 -5 5 -8 10 -19 10 -25z
m745 14 c11 -16 1 -19 -13 -3 -7 8 -8 14 -3 14 5 0 13 -5 16 -11z m55 -23 c0
-3 -4 -8 -10 -11 -5 -3 -10 -1 -10 4 0 6 5 11 10 11 6 0 10 -2 10 -4z m-640
-20 c0 -3 -4 -8 -10 -11 -5 -3 -10 -1 -10 4 0 6 5 11 10 11 6 0 10 -2 10 -4z
m60 -6 c0 -5 -5 -10 -11 -10 -5 0 -7 5 -4 10 3 6 8 10 11 10 2 0 4 -4 4 -10z
m120 -10 c0 -21 15 -27 25 -10 4 6 11 8 16 5 5 -4 9 1 9 9 0 20 7 20 26 2 9
-10 27 -13 56 -9 39 5 41 4 24 -9 -10 -8 -16 -20 -12 -26 3 -6 2 -13 -4 -17
-5 -3 -10 -1 -10 5 0 6 -5 8 -10 5 -6 -4 -7 -11 -4 -17 4 -7 2 -8 -4 -4 -6 4
-21 2 -32 -4 -17 -9 -20 -8 -20 10 0 11 -7 20 -15 20 -9 0 -12 -6 -8 -16 9
-24 -20 -12 -32 13 -6 12 -16 27 -23 35 -6 8 -9 18 -5 21 12 13 23 7 23 -13z
m-64 -26 c-3 -8 -1 -14 4 -14 6 0 10 7 10 15 0 19 7 19 27 -1 13 -12 13 -15 2
-13 -8 1 -22 -1 -32 -6 -12 -5 -24 -2 -37 10 -12 11 -27 15 -42 10 l-23 -6 24
14 c28 17 74 10 67 -9z m522 -117 c-2 -29 -6 -35 -17 -27 -12 7 -12 11 -2 23
8 10 9 17 1 22 -5 3 -10 1 -10 -5 0 -6 -4 -9 -9 -6 -5 4 -4 16 2 31 10 20 14
22 25 11 8 -7 12 -29 10 -49z m-24 -49 c-3 -4 2 -11 10 -14 18 -7 22 -44 5
-44 -5 0 -8 4 -5 9 7 10 -38 61 -54 61 -12 0 -12 3 -4 25 6 14 9 13 30 -6 13
-12 21 -26 18 -31z m-34 -18 c0 -5 -5 -10 -11 -10 -5 0 -7 5 -4 10 3 6 8 10
11 10 2 0 4 -4 4 -10z m17 -62 c-3 -7 -5 -2 -5 12 0 14 2 19 5 13 2 -7 2 -19
0 -25z m42 -60 c-7 -12 -6 -18 1 -18 7 0 10 -14 8 -32 -3 -28 -7 -33 -28 -32
-14 1 -29 -4 -33 -10 -5 -6 -6 1 -3 16 7 30 -11 49 -25 27 -6 -10 -9 -10 -9
-2 0 7 9 17 21 23 17 10 21 8 26 -10 6 -21 7 -20 19 8 7 17 10 41 7 53 -6 20
-5 21 9 8 11 -10 13 -19 7 -31z m-216 -18 c3 -11 1 -18 -4 -14 -5 3 -9 12 -9
20 0 20 7 17 13 -6z m-489 -26 c5 -12 1 -14 -17 -8 -28 8 -30 11 -23 23 8 13
33 4 40 -15z m306 0 c0 -2 -7 -4 -15 -4 -8 0 -15 4 -15 10 0 5 7 7 15 4 8 -4
15 -8 15 -10z m143 1 c-3 -9 -8 -14 -10 -11 -3 3 -2 9 2 15 9 16 15 13 8 -4z
m107 -1 c0 -8 -4 -12 -10 -9 -5 3 -10 10 -10 16 0 5 5 9 10 9 6 0 10 -7 10
-16z m-144 -19 c1 -9 -4 -11 -14 -7 -10 4 -12 7 -4 10 7 2 9 9 5 15 -3 7 -2 8
2 4 5 -4 10 -14 11 -22z m189 5 c3 -5 1 -10 -4 -10 -6 0 -11 5 -11 10 0 6 2
10 4 10 3 0 8 -4 11 -10z"/>
<path d="M973 1982 c1 -23 24 -25 32 -3 3 8 3 12 -1 8 -4 -4 -13 -2 -20 4 -10
8 -13 6 -11 -9z"/>
<path d="M1060 1990 c0 -5 5 -10 11 -10 5 0 7 5 4 10 -3 6 -8 10 -11 10 -2 0
-4 -4 -4 -10z"/>
<path d="M1060 1961 c0 -6 5 -13 10 -16 6 -3 10 1 10 9 0 9 -4 16 -10 16 -5 0
-10 -4 -10 -9z"/>
<path d="M1030 1930 c0 -7 24 -20 36 -20 13 0 1 19 -16 23 -11 3 -20 2 -20 -3z"/>
<path d="M755 1420 c3 -5 8 -10 11 -10 2 0 4 5 4 10 0 6 -5 10 -11 10 -5 0 -7
-4 -4 -10z"/>
<path d="M770 1375 c0 -9 6 -12 15 -9 8 4 15 7 15 9 0 2 -7 5 -15 9 -9 3 -15
0 -15 -9z"/>
<path d="M4327 2013 c-14 -3 -17 -10 -12 -26 3 -12 7 -28 7 -35 1 -7 7 -11 15
-8 7 3 13 1 13 -4 0 -6 -7 -10 -15 -10 -10 0 -15 -10 -15 -32 -2 -306 2 -853
6 -857 3 -3 14 4 24 16 9 12 20 19 24 16 3 -4 6 -1 6 5 0 7 -4 12 -9 12 -5 0
-9 14 -9 30 1 17 5 30 10 30 4 0 8 -3 7 -7 -1 -5 2 -18 6 -30 6 -19 10 -21 27
-12 15 8 19 8 14 0 -4 -6 -2 -11 3 -11 6 0 10 -6 8 -12 -1 -7 4 -12 11 -11 7
2 13 -8 13 -25 1 -15 3 -42 5 -60 3 -38 -17 -52 -47 -34 -24 16 -29 15 -29 -3
0 -19 96 -22 98 -2 1 6 4 95 7 197 10 376 8 354 38 393 15 20 27 40 27 46 0 6
5 11 10 11 6 0 10 5 10 11 0 8 -5 7 -15 -1 -9 -7 -32 -14 -53 -17 -27 -2 -33
-1 -22 6 12 8 14 31 12 113 -4 160 -13 268 -23 262 -5 -3 -6 1 -3 9 3 8 -1 19
-8 24 -15 13 -114 24 -141 16z m93 -35 c0 -5 4 -7 8 -4 4 2 14 1 22 -5 12 -7
11 -9 -4 -9 -19 0 -19 0 -1 -14 13 -9 19 -27 20 -55 1 -22 -3 -41 -7 -41 -4 0
-8 -4 -8 -10 0 -5 6 -7 13 -4 9 3 13 -2 11 -18 -1 -13 -3 -25 -4 -28 -2 -3 -3
-18 -4 -35 -3 -47 -17 -85 -31 -85 -23 0 -40 32 -40 78 -1 27 -6 47 -13 50 -9
3 -11 -4 -6 -24 5 -18 3 -25 -4 -20 -9 6 -15 81 -13 170 1 38 27 77 46 70 8
-4 15 -10 15 -16z m-83 -80 c-3 -8 -6 -5 -6 6 -1 11 2 17 5 13 3 -3 4 -12 1
-19z m53 -172 c0 -2 -7 -6 -15 -10 -8 -3 -15 -1 -15 4 0 6 7 10 15 10 8 0 15
-2 15 -4z m-14 -50 c0 -15 -5 -21 -10 -16 -5 5 -6 16 -3 24 9 23 15 19 13 -8z
m68 -29 c3 4 -1 -8 -10 -25 -8 -17 -12 -37 -9 -44 4 -7 -1 -4 -10 7 -8 11 -12
21 -7 23 5 1 7 15 4 30 -4 23 -3 25 10 15 8 -7 18 -10 22 -6z"/>
<path d="M4386 1842 c-2 -4 -1 -14 4 -22 7 -11 9 -9 7 8 -1 24 -3 26 -11 14z"/>
<path d="M6480 2010 c0 -13 11 -13 30 0 12 8 11 10 -7 10 -13 0 -23 -4 -23
-10z"/>
<path d="M6571 1999 c53 -46 70 -109 36 -131 -8 -5 -4 -8 9 -8 27 0 35 20 28
68 -6 38 -40 85 -55 76 -5 -3 -9 0 -9 5 0 6 -7 11 -17 11 -13 0 -11 -4 8 -21z"/>
<path d="M7733 1950 c0 -41 2 -58 4 -37 2 20 2 54 0 75 -2 20 -4 3 -4 -38z"/>
<path d="M7758 2013 c7 -3 16 -2 19 1 4 3 -2 6 -13 5 -11 0 -14 -3 -6 -6z"/>
<path d="M7810 2010 c14 -4 19 -8 12 -9 -7 -1 -10 -6 -6 -13 4 -6 -1 -17 -11
-25 -13 -9 -16 -16 -9 -23 7 -7 8 -29 4 -54 -4 -24 -5 -53 -3 -65 2 -12 -3
-21 -11 -21 -8 0 -13 -12 -14 -31 -1 -32 -21 -67 -23 -39 -1 41 -12 136 -15
139 -7 7 -2 -833 4 -854 4 -11 15 -21 24 -21 16 -2 16 1 2 27 -8 16 -10 29 -5
29 6 0 8 7 5 15 -4 8 -1 15 6 15 6 0 9 -4 5 -9 -3 -5 -1 -12 5 -16 6 -4 13 7
17 25 3 20 9 27 13 20 17 -28 31 4 30 68 -2 103 -1 136 6 129 4 -4 7 -55 8
-114 2 -80 6 -116 19 -140 20 -37 22 -84 5 -101 -9 -9 -7 -12 9 -12 21 0 21 3
25 273 l3 274 31 49 c34 55 35 81 2 63 -38 -20 -46 -6 -36 63 12 83 4 294 -12
313 -7 8 -9 15 -5 15 5 0 0 9 -10 20 -13 14 -30 20 -59 19 -35 -1 -38 -2 -16
-9z m63 -63 c4 3 7 2 8 -3 0 -5 2 -20 3 -34 2 -14 -2 -28 -8 -32 -8 -6 -8 -8
1 -8 6 0 11 -13 11 -30 -1 -18 -6 -30 -15 -30 -7 0 -13 -5 -13 -11 0 -5 4 -8
9 -5 5 3 15 -1 22 -10 10 -12 10 -15 -1 -12 -7 2 -15 -3 -18 -11 -3 -8 0 -11
7 -7 6 4 11 1 11 -8 0 -9 -6 -16 -12 -17 -10 0 -10 -2 -1 -5 16 -7 5 -34 -14
-34 -8 0 -12 -4 -9 -8 2 -4 1 -14 -4 -22 -5 -8 -8 14 -7 56 0 38 0 101 -2 139
-1 39 -2 81 -1 95 1 23 2 24 14 8 7 -10 16 -15 19 -11z m-12 -324 c13 -17 13
-17 -6 -3 -11 8 -22 16 -24 17 -2 2 0 3 6 3 6 0 17 -8 24 -17z m-104 -35 c-3
-8 -6 -5 -6 6 -1 11 2 17 5 13 3 -3 4 -12 1 -19z m43 -138 c0 -5 -5 -10 -11
-10 -5 0 -7 5 -4 10 3 6 8 10 11 10 2 0 4 -4 4 -10z m80 -11 c0 -6 -5 -7 -11
-3 -6 3 -15 0 -20 -7 -7 -11 -9 -11 -9 3 0 17 19 29 33 21 4 -2 7 -9 7 -14z
m-83 -31 c-3 -8 -6 -5 -6 6 -1 11 2 17 5 13 3 -3 4 -12 1 -19z m58 -70 c-7
-34 -15 -34 -15 1 0 18 4 30 9 26 6 -3 8 -15 6 -27z m-60 -58 c3 -6 -1 -7 -9
-4 -18 7 -21 14 -7 14 6 0 13 -4 16 -10z"/>
<path d="M2057 1979 l-32 -31 -2 -251 c-1 -184 1 -242 9 -215 11 40 33 55 55
36 13 -10 13 -14 -2 -24 -16 -12 -16 -13 4 -11 11 1 21 7 21 15 0 10 5 10 22
-2 26 -18 68 -21 68 -5 0 5 5 7 10 4 6 -4 8 -11 5 -16 -4 -5 -1 -9 4 -9 6 0
11 7 11 15 0 18 21 20 37 4 8 -8 17 -8 31 0 15 8 22 8 25 -2 4 -8 8 -8 14 -2
4 6 38 10 75 10 46 0 68 4 68 12 0 6 6 15 13 19 6 4 9 4 5 -1 -4 -4 -3 -16 3
-27 10 -19 11 -19 25 -1 13 17 15 17 27 1 8 -10 17 -15 20 -11 4 3 2 12 -3 19
-8 9 -4 12 17 11 15 -1 32 -6 36 -12 4 -5 5 2 1 18 -3 15 -2 27 2 27 12 0 34
-49 34 -74 -1 -21 -1 -21 -17 -1 -13 17 -15 17 -9 2 3 -10 2 -16 -2 -13 -5 3
-27 -2 -51 -10 -23 -8 -46 -12 -50 -10 -4 3 -18 7 -32 10 -13 2 -32 7 -41 11
-11 4 -18 3 -18 -4 0 -6 5 -11 12 -11 6 0 9 -3 6 -6 -4 -3 -20 2 -37 10 -17 9
-32 12 -36 7 -3 -5 3 -12 12 -14 16 -4 16 -5 1 -6 -9 0 -20 4 -23 9 -3 6 -13
10 -21 10 -9 0 -12 -5 -8 -11 5 -8 1 -8 -14 0 -26 14 -35 14 -27 1 9 -15 -7
-12 -32 5 -14 10 -24 12 -28 5 -4 -6 -16 -8 -27 -4 -11 3 -24 1 -28 -5 -5 -8
-14 -8 -35 3 -19 10 -33 12 -40 6 -7 -6 -15 -7 -18 -3 -4 3 -7 1 -7 -5 0 -6
-10 -13 -22 -15 -13 -2 104 -5 259 -6 155 0 288 -4 297 -7 9 -3 16 -1 16 6 0
6 -3 9 -7 7 -5 -3 -17 -1 -28 4 -18 7 -17 8 6 8 15 1 32 -5 38 -13 13 -16 54
-9 48 8 -3 6 -11 10 -18 8 -9 -1 -7 3 4 12 17 13 17 14 0 32 -15 15 -15 17 -2
12 11 -4 35 12 72 47 72 69 114 146 55 101 -10 -7 -18 -21 -18 -30 0 -20 -37
-16 -51 5 -7 11 -9 10 -9 -5 0 -12 -5 -16 -15 -12 -8 3 -15 1 -15 -5 0 -6 -4
-7 -10 -4 -15 9 -12 25 5 25 8 0 22 11 31 25 20 30 38 22 29 -12 -5 -23 -5
-24 10 -10 16 17 11 72 -5 62 -5 -3 -8 3 -7 14 0 11 4 18 7 16 14 -8 29 11 19
25 -8 13 -10 13 -18 0 -6 -8 -13 -11 -17 -7 -4 4 1 14 12 22 25 19 34 19 34
-1 0 -9 5 -14 11 -12 17 6 13 22 -8 33 -11 6 -18 15 -16 22 2 6 -3 23 -12 37
-9 14 -14 30 -10 37 5 8 1 9 -14 4 -13 -4 -21 -2 -21 5 0 6 5 8 12 4 8 -5 9
-2 5 9 -3 10 -4 17 -1 17 13 0 75 -74 91 -108 15 -33 17 -35 20 -14 6 33 -48
123 -93 154 -74 51 -126 58 -407 58 l-257 0 -33 -31z m148 -19 c3 -5 15 -10
26 -10 11 0 17 5 14 10 -11 18 4 11 25 -12 11 -12 20 -16 20 -10 0 14 36 16
45 2 4 -6 18 -5 39 4 29 12 34 12 44 -3 9 -13 12 -14 20 -2 6 8 17 11 26 8 20
-8 21 -27 2 -27 -8 0 -16 -7 -20 -15 -6 -16 5 -20 18 -7 4 4 13 7 19 7 7 0 12
5 12 12 0 7 5 17 12 24 8 8 15 4 28 -17 16 -28 16 -28 12 -4 -3 22 0 25 30 24
40 -1 63 -19 63 -50 0 -13 5 -24 10 -24 6 0 10 5 10 11 0 5 5 7 10 4 6 -4 8
-11 5 -16 -4 -5 -1 -9 5 -9 6 0 8 -4 5 -10 -3 -5 -2 -10 3 -10 6 0 13 -7 16
-16 4 -10 0 -15 -12 -13 -40 4 -42 0 -25 -44 30 -83 -8 -169 -87 -195 -25 -8
-53 -19 -64 -24 -12 -6 -16 -6 -12 1 4 6 -44 10 -141 10 -81 1 -150 4 -155 9
-4 4 -9 58 -10 120 -2 64 -7 113 -13 115 -5 1 -11 -8 -13 -20 -2 -13 -8 -23
-14 -23 -6 0 -8 -10 -4 -24 4 -16 -1 -32 -14 -47 -11 -14 -19 -18 -20 -11 0 7
-4 11 -9 8 -5 -3 -9 13 -9 36 -1 60 -18 70 -30 17 l-10 -44 -1 40 c-1 27 -4
36 -10 26 -12 -18 -24 92 -16 139 8 45 9 46 34 21 19 -19 21 -19 21 -3 0 27
20 42 50 35 15 -3 31 0 34 6 9 14 23 14 31 1z m455 0 c0 -5 -4 -10 -9 -10 -6
0 -13 5 -16 10 -3 6 1 10 9 10 9 0 16 -4 16 -10z m60 -31 c0 -6 -4 -7 -10 -4
-5 3 -10 11 -10 16 0 6 5 7 10 4 6 -3 10 -11 10 -16z m-15 -19 c3 -5 2 -10 -4
-10 -5 0 -13 5 -16 10 -3 6 -2 10 4 10 5 0 13 -4 16 -10z m45 -120 c0 -5 -5
-10 -11 -10 -5 0 -7 5 -4 10 3 6 8 10 11 10 2 0 4 -4 4 -10z m-598 -140 c-2
-18 0 -30 7 -30 6 0 9 -10 7 -22 -2 -17 -10 -23 -29 -23 -14 1 -23 -3 -20 -8
3 -5 0 -8 -7 -5 -8 2 -14 18 -15 35 -1 21 3 29 11 26 8 -3 11 2 7 16 -6 23
-19 27 -26 9 -4 -10 -6 -10 -6 0 -1 19 27 26 44 12 12 -10 15 -9 15 4 0 9 4
16 8 16 5 0 7 -13 4 -30z m-85 -62 c-3 -8 -6 -5 -6 6 -1 11 2 17 5 13 3 -3 4
-12 1 -19z m659 0 c4 -7 2 -8 -4 -4 -7 4 -12 2 -12 -5 0 -6 -8 -9 -19 -6 -13
3 -21 -1 -24 -12 -3 -11 -5 -10 -6 6 0 12 4 23 10 25 25 8 49 6 55 -4z m-569
-144 c-3 -3 -12 -4 -19 -1 -8 3 -5 6 6 6 11 1 17 -2 13 -5z"/>
<path d="M2390 1920 c0 -5 5 -10 11 -10 5 0 7 5 4 10 -3 6 -8 10 -11 10 -2 0
-4 -4 -4 -10z"/>
<path d="M2600 1926 c0 -2 7 -9 15 -16 13 -11 14 -10 9 4 -5 14 -24 23 -24 12z"/>
<path d="M2119 1903 c-13 -16 -12 -17 4 -4 9 7 17 15 17 17 0 8 -8 3 -21 -13z"/>
<path d="M2302 1909 c3 -14 -57 -33 -82 -26 -21 5 -42 -26 -33 -50 6 -15 8
-14 13 7 l6 25 179 5 c174 6 177 12 9 14 -57 1 -80 4 -77 12 2 7 -1 15 -7 19
-6 3 -9 1 -8 -6z"/>
<path d="M6462 1980 c0 -14 2 -19 5 -12 2 6 2 18 0 25 -3 6 -5 1 -5 -13z"/>
<path d="M6480 1896 c0 -2 8 -10 18 -17 15 -13 16 -12 3 4 -13 16 -21 21 -21
13z"/>
<path d="M6553 1863 c9 -2 23 -2 30 0 6 3 -1 5 -18 5 -16 0 -22 -2 -12 -5z"/>
<path d="M5440 1773 c24 -5 40 -19 40 -35 0 -16 -35 -7 -57 14 -19 18 -28 20
-50 12 -51 -18 -53 -31 -53 -416 0 -356 0 -357 23 -382 12 -14 36 -28 52 -31
23 -5 26 -4 15 4 -8 6 -24 11 -35 11 -16 0 -17 2 -5 10 12 8 12 13 -2 42 -14
30 -14 37 -2 61 10 17 11 27 4 27 -6 0 -8 5 -4 11 9 15 13 170 5 164 -4 -2 -7
12 -7 30 1 19 3 35 6 35 3 0 4 22 4 50 -1 31 3 50 10 50 6 0 22 3 35 7 22 6
23 4 19 -25 -2 -18 -1 -32 4 -32 7 0 12 23 9 43 0 4 4 7 9 7 16 0 12 -68 -5
-78 -9 -4 -17 -18 -18 -30 -1 -24 -12 -29 -21 -9 -3 6 -3 1 0 -12 5 -18 3 -23
-7 -19 -11 4 -14 -9 -15 -58 -1 -44 2 -61 10 -57 6 4 5 -1 -3 -11 -13 -15 -12
-21 3 -47 16 -27 14 -34 -9 -29 -5 1 -4 -4 3 -11 6 -7 12 -22 13 -33 0 -12 3
-15 6 -8 6 16 23 15 23 -2 0 -8 6 -16 14 -19 8 -3 16 -16 19 -29 5 -25 9 168
9 377 -1 159 0 147 -13 140 -6 -4 -8 -13 -5 -21 3 -7 1 -16 -4 -19 -6 -4 -10
0 -10 7 0 10 -2 10 -9 -1 -5 -7 -14 -10 -20 -7 -6 4 -11 3 -11 -3 0 -5 -9 -9
-20 -8 -22 1 -26 17 -8 35 9 9 9 12 0 12 -8 0 -13 14 -13 38 1 116 3 137 12
153 6 12 15 16 27 12 15 -6 15 -5 3 11 -12 14 -12 19 -1 29 10 9 11 9 6 0 -8
-14 36 -29 53 -19 6 4 8 -2 6 -14 -2 -11 1 -23 7 -26 7 -5 9 0 6 14 -7 25 3
35 27 26 13 -5 14 -8 3 -15 -8 -5 -3 -8 15 -6 24 2 30 -3 41 -33 7 -19 17 -44
21 -55 8 -20 8 -20 -14 0 -19 16 -24 17 -32 5 -8 -12 -10 -10 -6 8 3 12 1 22
-5 22 -5 0 -6 9 -3 20 4 11 2 20 -4 20 -6 0 -11 -9 -11 -21 0 -11 -4 -17 -10
-14 -5 3 -10 -1 -10 -9 0 -8 -7 -19 -16 -24 -13 -7 -13 -13 -3 -35 10 -23 9
-30 -7 -49 -10 -13 -12 -17 -4 -10 38 33 48 14 154 -283 47 -131 91 -243 97
-249 8 -8 10 -7 8 4 -3 18 16 66 25 63 18 -8 14 -1 -11 22 -15 14 -22 24 -14
23 25 -5 25 34 0 54 -16 12 -18 16 -6 12 13 -5 17 -1 17 16 0 11 -4 19 -9 16
-5 -4 -7 3 -4 13 5 19 26 22 40 6 4 -4 3 -5 -4 -1 -6 3 -14 2 -17 -3 -6 -9 19
-34 44 -45 8 -3 3 -4 -12 -1 -15 3 -29 1 -33 -4 -3 -5 5 -11 17 -13 19 -3 23
-9 22 -40 -1 -23 4 -39 12 -42 8 -3 14 1 14 8 0 8 6 16 14 19 10 4 12 0 9 -14
-6 -23 12 -26 21 -3 4 9 9 14 13 10 3 -3 -1 -14 -10 -23 -16 -18 -17 -21 -17
-49 0 -11 -6 -14 -17 -10 -15 5 -14 3 2 -10 20 -15 20 -16 -8 -40 -31 -26 -26
-30 19 -14 35 13 57 41 85 112 35 88 40 108 23 108 -8 0 -15 -4 -15 -10 -1 -5
-3 -14 -4 -20 -1 -5 -3 -17 -4 -26 0 -8 -6 -12 -12 -9 -6 4 -9 1 -8 -6 7 -33
-33 -100 -46 -79 -3 6 1 13 10 16 10 4 13 13 10 24 -3 10 -1 21 5 25 6 3 8 10
5 15 -3 4 2 13 10 20 11 9 12 16 5 25 -7 9 -7 21 0 40 6 15 7 31 4 37 -4 6 2
8 17 3 15 -4 19 -3 12 2 -7 5 -14 19 -16 31 -3 24 -17 42 -17 24 0 -7 -4 -12
-9 -12 -5 0 -8 8 -6 18 2 9 4 19 4 22 1 2 6 -1 13 -8 15 -15 42 -16 33 -1 -4
6 -17 14 -29 19 -18 8 -19 9 -2 9 15 1 16 4 6 16 -8 10 -9 15 -2 15 7 0 9 7 5
17 -5 13 -2 15 11 10 10 -4 22 -7 28 -7 5 0 0 -12 -11 -26 -19 -24 -19 -27 -4
-42 9 -9 22 -17 30 -18 23 -4 25 -10 8 -24 -13 -11 -14 -10 -9 6 5 13 4 16 -3
9 -7 -6 -8 -28 -4 -55 l7 -45 37 110 c20 61 37 113 37 118 0 16 -18 6 -23 -13
-3 -11 -10 -20 -16 -20 -7 0 -7 8 -1 25 5 14 7 25 3 25 -4 0 0 6 9 13 11 8 13
19 8 37 -5 14 -9 18 -10 10 -1 -11 -4 -9 -10 5 -7 19 -8 19 -15 2 -5 -12 -1
-22 11 -32 18 -13 18 -13 -1 -12 -13 1 -20 -4 -19 -15 1 -10 -5 -18 -13 -18
-10 0 -12 6 -8 20 4 13 2 20 -7 20 -10 1 -9 4 2 13 10 8 15 27 14 55 0 28 5
50 15 60 11 11 12 17 4 19 -9 3 -9 12 -2 30 6 16 6 30 0 36 -12 12 -144 -377
-143 -423 0 -19 3 -56 6 -81 4 -40 2 -48 -14 -52 -11 -3 -21 1 -24 10 -9 22
-7 30 4 13 5 -8 12 -12 15 -8 6 6 -20 55 -35 68 -4 3 -6 14 -7 25 0 28 -148
459 -170 495 -24 41 -87 70 -149 69 -28 -1 -38 -4 -24 -6z m87 -165 c-3 -8 -6
-5 -6 6 -1 11 2 17 5 13 3 -3 4 -12 1 -19z m453 -224 c0 -2 -7 -4 -15 -4 -8 0
-15 4 -15 10 0 5 7 7 15 4 8 -4 15 -8 15 -10z m-300 -34 c0 -5 -4 -10 -10 -10
-5 0 -10 5 -10 10 0 6 5 10 10 10 6 0 10 -4 10 -10z m310 -46 c0 -8 -4 -12
-10 -9 -5 3 -10 10 -10 16 0 5 5 9 10 9 6 0 10 -7 10 -16z m-569 -77 c-17 -17
-24 -1 -10 25 12 21 14 21 17 4 2 -10 -1 -23 -7 -29z m453 -22 c-6 -26 -8 -27
-20 -10 -12 15 -11 20 4 31 22 16 25 13 16 -21z m-447 -17 c-3 -8 -6 -5 -6 6
-1 11 2 17 5 13 3 -3 4 -12 1 -19z"/>
<path d="M6173 1774 c24 -8 21 -22 -5 -27 -20 -4 -20 -4 4 -6 35 -1 44 -17 18
-31 -18 -10 -24 -7 -22 11 2 13 -37 16 -42 4 -3 -8 5 -16 20 -19 13 -4 23 -10
23 -14 -4 -21 3 -23 21 -7 36 33 50 28 50 -18 0 -23 -4 -49 -10 -57 -5 -9 -5
-19 2 -27 6 -8 6 -13 1 -13 -5 0 -10 -6 -10 -12 0 -7 -2 -20 -4 -28 -2 -8 2
-14 9 -12 8 1 11 -2 7 -8 -3 -5 -13 -10 -21 -10 -8 0 -14 -9 -14 -19 0 -11 -5
-23 -10 -26 -7 -4 -9 7 -7 32 2 21 -1 46 -6 57 -6 12 -6 16 1 12 5 -3 13 2 16
11 4 9 1 20 -6 25 -7 4 -8 8 -3 8 6 1 0 5 -13 11 -18 7 -22 14 -17 29 5 14 2
20 -9 20 -9 0 -17 -4 -17 -10 -1 -5 -2 -15 -3 -22 -2 -16 -26 -22 -27 -6 0 7
-4 3 -9 -9 -7 -16 -14 -21 -26 -16 -13 5 -16 2 -11 -10 3 -8 1 -18 -6 -21 -7
-2 -4 -5 7 -5 11 -1 16 4 13 12 -3 7 4 13 18 13 12 1 22 -4 22 -12 0 -7 -5
-10 -11 -7 -6 4 -3 -3 7 -14 13 -15 17 -37 17 -90 0 -82 9 -135 21 -127 5 3 9
0 9 -5 0 -6 -4 -11 -9 -11 -14 0 -25 -238 -13 -290 10 -45 10 -45 11 28 1 43
5 72 12 72 5 0 8 -4 5 -9 -3 -5 -3 -23 0 -41 5 -22 10 -28 17 -21 18 18 24 12
20 -16 -2 -16 -6 -47 -8 -70 -4 -41 -3 -43 24 -43 16 0 40 11 55 25 l26 24 0
374 0 374 -24 22 c-15 14 -40 24 -68 26 -23 3 -35 2 -25 -1z m67 -34 c0 -17
-2 -19 -14 -8 -10 9 -11 15 -2 20 16 11 16 10 16 -12z m-10 -254 c0 -3 -4 -8
-10 -11 -5 -3 -10 -1 -10 4 0 6 5 11 10 11 6 0 10 -2 10 -4z m-30 -56 c0 -5
-2 -10 -4 -10 -3 0 -8 5 -11 10 -3 6 -1 10 4 10 6 0 11 -4 11 -10z m25 -49 c3
-5 2 -12 -3 -15 -5 -3 -9 1 -9 9 0 17 3 19 12 6z m-5 -72 c0 -5 -4 -7 -10 -4
-5 3 -10 -2 -10 -11 0 -10 -3 -15 -6 -11 -9 9 3 37 16 37 5 0 10 -5 10 -11z
m-73 -91 c-2 -18 -4 -4 -4 32 0 36 2 50 4 33 2 -18 2 -48 0 -65z m90 40 c2
-17 0 -19 -7 -8 -5 8 -6 18 -4 22 8 12 10 10 11 -14z m0 -80 c-3 -8 -6 -5 -6
6 -1 11 2 17 5 13 3 -3 4 -12 1 -19z m-83 -13 c-4 -8 -8 -15 -10 -15 -2 0 -4
7 -4 15 0 8 4 15 10 15 5 0 7 -7 4 -15z m92 -141 c-3 -7 3 -10 15 -7 14 4 19
0 19 -14 0 -24 -19 -43 -43 -43 -15 0 -18 5 -14 26 2 15 1 42 -5 60 -6 23 -5
47 3 76 l13 43 8 -65 c4 -36 6 -70 4 -76z"/>
<path d="M6460 1760 c0 -11 2 -20 4 -20 2 0 6 9 9 20 3 11 1 20 -4 20 -5 0 -9
-9 -9 -20z"/>
<path d="M6546 1771 c5 -4 25 -11 44 -15 32 -5 34 -5 16 9 -21 16 -77 22 -60
6z"/>
<path d="M6930 1770 c0 -6 7 -10 15 -10 8 0 15 2 15 4 0 2 -7 6 -15 10 -8 3
-15 1 -15 -4z"/>
<path d="M7236 1771 c-4 -6 -12 -9 -17 -6 -5 4 -16 -1 -24 -9 -9 -8 -21 -13
-28 -10 -7 2 -26 -9 -42 -26 -22 -23 -25 -30 -12 -30 9 0 17 5 17 10 0 14 54
34 58 22 3 -11 50 -4 57 9 7 10 34 1 56 -18 14 -11 18 -11 29 2 10 12 10 15
-3 15 -9 0 -19 4 -22 10 -4 7 3 7 20 0 15 -6 31 -7 37 -4 6 4 8 3 5 -3 -4 -5
4 -16 18 -23 15 -8 21 -18 17 -29 -5 -13 -3 -14 9 -4 19 15 42 1 33 -20 -3 -9
-11 -14 -16 -11 -6 4 -9 -12 -7 -45 4 -53 -4 -63 -27 -33 -13 16 -14 16 -7 -3
6 -18 5 -19 -12 -5 -17 14 -18 13 -11 -5 15 -37 26 -208 24 -381 -2 -187 4
-214 58 -234 30 -12 114 -13 114 -2 0 4 1 144 2 312 2 270 0 311 -16 358 -22
64 -64 116 -119 143 -47 24 -180 38 -191 20z m-16 -31 c0 -5 -4 -10 -10 -10
-5 0 -10 5 -10 10 0 6 5 10 10 10 6 0 10 -4 10 -10z m288 -113 c15 -34 15 -40
2 -32 -5 3 -10 -1 -10 -9 0 -9 4 -16 9 -16 4 0 6 -12 3 -26 -3 -16 1 -30 9
-35 10 -6 10 -9 2 -9 -15 0 -13 -50 2 -50 5 0 2 -5 -8 -11 -13 -8 -15 -14 -7
-29 8 -15 6 -24 -10 -40 -22 -22 -27 -50 -8 -50 6 0 9 -2 6 -5 -3 -4 -17 -3
-30 0 -23 6 -24 10 -18 45 4 22 3 41 -2 42 -5 2 -5 16 2 33 8 20 8 31 1 33 -7
2 -8 10 -1 22 7 13 6 20 -3 24 -8 4 -7 5 3 5 34 -3 39 1 33 29 -3 15 -6 33 -7
40 -3 16 -27 33 -38 26 -4 -3 -8 0 -8 5 0 6 5 11 10 11 6 0 10 7 10 15 0 8 6
15 13 15 6 0 -1 12 -16 25 -16 14 -25 29 -22 35 7 11 66 -55 83 -93z m-1 -289
c-3 -7 -5 -2 -5 12 0 14 2 19 5 13 2 -7 2 -19 0 -25z m-33 -37 c7 -11 -4 -101
-13 -101 -3 0 -7 25 -8 55 -2 50 7 69 21 46z m-7 -213 c-3 -8 -6 -5 -6 6 -1
11 2 17 5 13 3 -3 4 -12 1 -19z m-19 -40 c-2 -6 -10 -14 -16 -16 -7 -2 -10 2
-6 12 7 18 28 22 22 4z m5 -43 c-3 -9 -8 -14 -10 -11 -3 3 -2 9 2 15 9 16 15
13 8 -4z m83 -27 c-1 -22 -7 -34 -18 -36 -21 -4 -34 34 -18 53 21 25 37 17 36
-17z"/>
<path d="M7480 1495 c0 -8 4 -15 10 -15 5 0 7 7 4 15 -4 8 -8 15 -10 15 -2 0
-4 -7 -4 -15z"/>
<path d="M7480 1406 c0 -9 5 -16 10 -16 6 0 10 4 10 9 0 6 -4 13 -10 16 -5 3
-10 -1 -10 -9z"/>
<path d="M3168 1763 c7 -3 16 -2 19 1 4 3 -2 6 -13 5 -11 0 -14 -3 -6 -6z"/>
<path d="M8206 1761 c49 -12 58 -21 37 -37 -14 -11 -15 -14 -3 -13 8 1 25 -2
37 -6 12 -4 25 -7 28 -6 5 1 18 -8 50 -37 8 -7 11 -20 8 -29 -4 -10 -2 -14 4
-10 5 3 10 0 10 -8 0 -8 -4 -12 -9 -9 -4 3 -5 -2 -2 -10 3 -9 9 -16 13 -16 4
0 5 -18 3 -40 -2 -22 -8 -40 -12 -40 -4 0 -10 -9 -13 -20 -3 -13 0 -20 9 -20
8 0 13 3 12 8 -2 4 0 8 5 10 16 5 19 1 7 -13 -10 -12 -10 -18 0 -30 13 -16 2
-24 -32 -22 -17 0 -21 13 -21 69 0 10 -4 15 -9 12 -5 -3 -12 3 -15 15 -3 12
-10 21 -15 21 -5 0 -6 5 -2 11 4 7 -1 10 -12 7 -11 -2 -27 6 -37 17 -17 19
-17 19 0 -15 16 -30 19 -72 23 -300 3 -146 7 -250 9 -232 7 62 16 78 37 61 7
-6 11 -16 7 -22 -3 -6 -1 -7 6 -3 6 4 9 12 6 17 -4 5 -1 9 4 9 6 0 11 5 11 11
0 5 -5 7 -10 4 -12 -7 11 47 23 56 5 4 4 10 -2 13 -6 4 -11 16 -11 27 0 11 5
17 10 14 6 -3 10 -1 10 4 0 6 -4 11 -10 11 -14 0 -12 27 3 33 10 4 10 7 0 18
-7 7 -13 31 -13 53 0 36 1 38 13 21 11 -14 16 -15 22 -5 6 9 4 11 -5 5 -10 -6
-12 -4 -7 7 4 11 -1 18 -15 21 -26 7 -14 27 16 27 21 0 22 -3 24 -105 1 -76
-2 -105 -11 -105 -9 0 -9 -2 -1 -8 10 -6 21 -123 24 -234 0 -12 8 -18 23 -18
l22 0 -5 317 c-4 277 -7 323 -23 357 -21 47 -64 106 -78 106 -5 0 -18 9 -28
19 -22 22 -82 41 -121 40 -22 -1 -22 -2 6 -8z m104 -47 c0 -8 -5 -12 -10 -9
-6 4 -8 11 -5 16 9 14 15 11 15 -7z m20 -238 c0 -3 -4 -8 -10 -11 -5 -3 -10
-1 -10 4 0 6 5 11 10 11 6 0 10 -2 10 -4z"/>
<path d="M3426 1752 c-3 -3 -5 -21 -5 -41 1 -35 2 -35 8 -7 3 16 15 33 26 37
11 4 18 8 15 9 -21 6 -40 7 -44 2z"/>
<path d="M3800 1751 c-8 -6 -18 -7 -22 -4 -12 6 -58 -24 -58 -38 0 -8 4 -8 13
-2 6 6 22 13 35 16 18 4 21 3 12 -8 -14 -17 15 -29 38 -16 17 10 51 -2 64 -23
5 -7 8 -4 8 7 0 9 -5 17 -11 17 -8 0 -8 4 0 14 10 12 8 13 -8 9 -12 -3 -21 -1
-21 6 0 5 -7 8 -15 5 -8 -4 -15 -1 -15 4 0 6 8 13 18 15 14 4 14 5 -3 6 -11 0
-27 -3 -35 -8z"/>
<path d="M4793 1753 c9 -2 17 -12 18 -21 0 -10 3 -12 6 -5 3 10 8 9 19 -2 12
-12 18 -12 29 -2 17 15 4 23 -50 29 -22 3 -32 3 -22 1z"/>
<path d="M6870 1750 c0 -5 5 -10 10 -10 6 0 10 5 10 10 0 6 -4 10 -10 10 -5 0
-10 -4 -10 -10z"/>
<path d="M987 1743 c-4 -3 -7 -29 -7 -56 0 -63 9 -57 16 12 5 50 4 58 -9 44z"/>
<path d="M1022 1745 c3 -3 40 -8 82 -10 42 -2 81 -7 87 -11 7 -4 10 -1 7 7 -3
10 -28 15 -93 17 -49 2 -87 0 -83 -3z"/>
<path d="M3490 1746 c0 -2 7 -6 15 -10 8 -3 15 -1 15 4 0 6 -7 10 -15 10 -8 0
-15 -2 -15 -4z"/>
<path d="M6070 1735 c0 -12 4 -13 19 -6 10 6 21 7 25 4 3 -3 6 -1 6 5 0 7 -11
12 -25 12 -16 0 -25 -6 -25 -15z"/>
<path d="M6851 1570 c-1 -102 -3 -239 -5 -305 -3 -96 7 -278 13 -241 0 5 7 3
15 -3 10 -8 16 -9 21 -1 3 5 2 10 -4 10 -15 0 3 59 23 72 6 4 4 9 -6 13 -9 4
-15 12 -12 19 3 7 6 26 7 42 2 22 8 30 25 32 18 3 22 -1 21 -25 -2 -23 -2 -24
-6 -5 -2 12 -8 22 -13 22 -14 0 -9 -68 7 -87 13 -17 13 -16 4 4 -16 31 -13 40
4 17 8 -10 15 -28 15 -40 0 -11 9 -29 19 -38 11 -10 18 -23 15 -29 -2 -7 0
-19 6 -27 22 -35 29 15 32 246 l3 241 27 41 c15 22 24 43 19 46 -11 7 -33 -18
-24 -27 3 -4 -3 -7 -15 -7 -22 0 -28 10 -14 24 4 4 7 11 7 14 1 4 8 21 17 38
16 28 16 31 0 31 -9 0 -26 -11 -39 -25 -13 -14 -23 -21 -23 -16 0 5 -7 -4 -15
-19 -8 -16 -14 -31 -14 -35 4 -23 -4 -31 -23 -29 -18 2 -22 -3 -24 -30 -1 -18
2 -30 7 -27 5 3 9 0 9 -5 0 -6 -4 -11 -9 -11 -4 0 -6 -12 -3 -27 3 -21 1 -25
-7 -17 -11 10 -15 47 -12 107 1 17 7 27 16 27 8 0 15 9 15 20 0 11 -4 20 -10
20 -5 0 -10 -7 -10 -15 0 -8 -4 -15 -9 -15 -5 0 -8 36 -6 80 1 44 -1 80 -6 80
-5 0 -9 -10 -10 -22 0 -22 -1 -22 -8 -3 -6 14 -3 24 8 33 15 12 14 13 -1 8
-10 -3 -18 2 -21 12 -3 9 -5 -66 -6 -168z m110 -77 c1 -10 0 -22 -1 -28 -7
-32 -6 -75 1 -75 5 0 9 -10 9 -22 0 -21 -15 -17 -15 5 -1 7 -6 11 -11 10 -12
-2 -13 56 -1 75 5 6 4 12 0 12 -5 0 -9 9 -9 20 0 25 26 27 27 3z m-44 -123
c-1 -11 -5 -20 -9 -20 -4 0 -8 9 -8 20 0 11 4 20 9 20 6 0 9 -9 8 -20z m3 -39
c0 -6 -4 -13 -10 -16 -5 -3 -10 1 -10 9 0 9 5 16 10 16 6 0 10 -4 10 -9z m27
-23 c-3 -8 -6 -5 -6 6 -1 11 2 17 5 13 3 -3 4 -12 1 -19z m-24 -23 c4 -8 2
-17 -3 -20 -6 -4 -10 1 -10 10 0 10 -5 13 -12 9 -7 -4 -8 -3 -4 4 10 16 23 15
29 -3z m-3 -49 c0 -3 -4 -8 -10 -11 -5 -3 -10 -1 -10 4 0 6 5 11 10 11 6 0 10
-2 10 -4z"/>
<path d="M8065 1740 c-3 -5 -2 -10 4 -10 5 0 13 5 16 10 3 6 2 10 -4 10 -5 0
-13 -4 -16 -10z"/>
<path d="M3448 1723 c7 -3 16 -2 19 1 4 3 -2 6 -13 5 -11 0 -14 -3 -6 -6z"/>
<path d="M4620 1719 c0 -5 -5 -7 -12 -3 -7 4 -8 3 -4 -4 4 -6 13 -9 21 -6 8 4
12 10 9 15 -7 12 -14 11 -14 -2z"/>
<path d="M3908 1690 c-6 -38 -3 -49 10 -34 5 5 6 23 2 39 l-6 30 -6 -35z"/>
<path d="M4000 1710 c0 -6 5 -10 10 -10 6 0 10 -7 10 -15 0 -8 3 -15 8 -15 10
-1 38 -41 47 -69 5 -18 4 -22 -6 -17 -8 4 -5 0 6 -10 17 -14 17 -16 3 -11 -10
4 -18 2 -18 -3 0 -6 -7 -10 -15 -10 -8 0 -15 -7 -15 -16 0 -13 3 -14 14 -5 30
25 31 16 39 -340 2 -80 7 -151 11 -157 3 -6 1 -14 -4 -17 -7 -5 -5 -11 6 -19
14 -11 15 -15 3 -34 -15 -24 -8 -37 16 -28 15 5 16 39 13 323 -3 299 -4 321
-24 363 -22 46 -55 82 -86 93 -10 4 -18 2 -18 -3z"/>
<path d="M4890 1710 c0 -5 5 -10 11 -10 5 0 7 5 4 10 -3 6 -8 10 -11 10 -2 0
-4 -4 -4 -10z"/>
<path d="M6087 1713 c-12 -11 -7 -23 9 -23 10 0 14 -5 10 -16 -3 -8 -2 -12 4
-9 6 3 10 12 10 19 0 17 -25 38 -33 29z"/>
<path d="M6620 1713 c7 -3 7 -10 -1 -20 -10 -11 -10 -16 0 -22 9 -6 9 -11 -3
-20 -12 -10 -15 -9 -19 6 -4 15 -5 14 -6 -3 -1 -31 -26 -86 -34 -77 -13 12 -7
-13 6 -26 10 -12 8 -13 -8 -7 -19 6 -19 5 -2 -8 15 -11 15 -16 5 -27 -16 -17
-19 -81 -4 -91 8 -5 7 -8 -1 -8 -9 0 -12 -19 -12 -61 1 -33 -2 -63 -5 -66 -3
-4 -6 3 -6 14 0 12 -6 23 -12 26 -10 3 -10 7 -2 18 10 13 10 125 0 189 -2 14
-4 31 -5 38 0 6 -7 11 -13 10 -9 -2 -15 14 -18 47 l-5 50 -8 -49 c-8 -58 -9
-581 -1 -613 4 -13 10 -23 14 -23 5 0 6 9 3 20 -3 11 -2 31 1 46 6 21 10 23
21 14 11 -9 16 -7 24 9 14 25 14 41 1 21 -7 -11 -9 0 -7 37 3 65 21 70 24 7 1
-26 7 -51 15 -55 11 -7 11 -9 -1 -9 -8 0 -11 -6 -7 -16 4 -9 1 -23 -6 -32 -12
-14 -10 -14 11 -2 21 11 23 10 18 -4 -4 -10 -1 -19 9 -23 19 -7 32 6 15 16
-10 6 -8 9 6 13 15 4 18 -1 17 -25 0 -17 -8 -35 -17 -42 -9 -7 -14 -15 -10
-18 3 -4 2 -7 -4 -7 -6 0 -13 6 -16 14 -5 12 -11 12 -31 3 -21 -10 -23 -13 -8
-19 9 -4 36 -7 60 -7 l43 -1 -3 392 c-2 307 -6 392 -16 394 -7 1 -8 0 -2 -3z
m-120 -167 c0 -8 -4 -18 -10 -21 -5 -3 -10 3 -10 14 0 12 5 21 10 21 6 0 10
-6 10 -14z m70 -86 c0 -5 -2 -10 -4 -10 -3 0 -8 5 -11 10 -3 6 -1 10 4 10 6 0
11 -4 11 -10z m-27 -240 c-3 -11 -7 -20 -9 -20 -2 0 -4 9 -4 20 0 11 4 20 9
20 5 0 7 -9 4 -20z"/>
<path d="M8010 1705 c-8 -9 -8 -15 -2 -15 12 0 26 19 19 26 -2 2 -10 -2 -17
-11z"/>
<path d="M3226 1702 c-3 -6 -1 -14 5 -17 14 -9 20 -2 10 14 -6 8 -11 9 -15 3z"/>
<path d="M4934 1696 c17 -14 18 -16 3 -16 -15 0 -14 -3 3 -20 23 -23 44 -70
35 -79 -3 -3 -11 1 -16 9 -8 12 -9 12 -7 -4 4 -27 -18 -31 -25 -4 -6 21 -22
18 -22 -4 0 -6 -6 -13 -12 -15 -7 -3 -13 3 -13 14 0 13 -2 15 -9 5 -4 -7 -18
-14 -29 -15 -26 -2 -26 0 -7 -38 13 -24 16 -78 18 -279 2 -178 6 -253 15 -262
9 -9 12 -9 12 3 1 10 3 10 11 -3 5 -10 19 -18 29 -18 13 0 20 -7 20 -20 0 -17
7 -20 45 -20 l45 0 0 293 c0 231 -3 305 -15 352 -16 60 -58 125 -86 132 -8 3
-6 -2 5 -11z m53 -161 c0 -11 -4 -12 -14 -4 -7 6 -13 13 -13 15 0 2 6 4 13 4
8 0 14 -7 14 -15z m-14 -29 c-2 -3 -3 -19 -3 -36 0 -18 -5 -30 -13 -30 -16 0
-39 58 -25 66 5 3 7 13 3 21 -5 14 -3 14 17 1 13 -9 22 -18 21 -22z m-23 -86
c0 -5 -5 -10 -11 -10 -5 0 -7 5 -4 10 3 6 8 10 11 10 2 0 4 -4 4 -10z m1 -341
c-2 -8 -4 -20 -4 -27 0 -7 -6 -11 -13 -8 -8 3 -16 1 -19 -4 -4 -6 -2 -10 3
-10 6 0 8 -10 5 -21 -5 -19 -8 -20 -17 -7 -6 8 -17 13 -23 11 -14 -5 -16 30
-4 61 6 15 10 16 16 7 4 -8 2 -17 -6 -22 -23 -15 0 -10 31 6 32 17 41 29 13
18 -11 -4 -14 -3 -9 6 10 16 32 8 27 -10z m35 -55 c-3 -7 0 -14 6 -16 6 -2 8
-16 3 -36 -5 -23 -12 -32 -26 -32 -11 0 -18 4 -14 9 3 5 1 12 -4 15 -10 6 -8
33 4 74 6 18 10 20 22 11 8 -7 12 -18 9 -25z"/>
<path d="M4840 1690 c-8 -5 -12 -12 -9 -15 4 -3 12 1 19 10 14 17 11 19 -10 5z"/>
<path d="M5438 1693 c7 -3 16 -2 19 1 4 3 -2 6 -13 5 -11 0 -14 -3 -6 -6z"/>
<path d="M3081 1357 l-1 -337 33 -21 32 -20 -30 6 -30 6 28 -25 c15 -14 40
-26 54 -26 25 0 26 0 8 20 -10 11 -14 20 -9 20 5 1 0 8 -12 18 -29 24 -61 74
-43 67 11 -4 14 12 15 80 1 83 6 106 21 91 4 -4 2 -15 -5 -26 -6 -10 -8 -21
-3 -24 12 -8 20 -56 10 -62 -5 -3 -9 -10 -9 -16 0 -6 6 -6 15 2 13 11 14 10
10 -2 -4 -9 1 -18 9 -21 11 -5 16 0 16 13 0 11 4 20 10 20 5 0 7 -7 4 -15 -4
-10 0 -15 14 -15 11 0 23 -8 25 -17 2 -10 5 102 5 250 1 266 0 273 -30 268 -8
-1 -12 15 -9 32 1 5 -3 6 -9 2 -5 -3 -10 -15 -10 -26 0 -10 -4 -19 -10 -19 -5
0 -10 5 -10 10 0 6 -4 10 -9 10 -5 0 -8 -8 -7 -17 0 -10 -6 -18 -14 -18 -9 0
-15 10 -15 25 0 15 -7 26 -18 28 -9 2 -17 10 -17 17 0 9 7 12 18 9 15 -5 15
-4 1 8 -9 7 -18 20 -22 28 -3 8 -6 -137 -6 -323z m59 173 c0 -5 -2 -10 -4 -10
-3 0 -8 5 -11 10 -3 6 -1 10 4 10 6 0 11 -4 11 -10z m-30 -506 c0 -8 -4 -12
-10 -9 -5 3 -10 10 -10 16 0 5 5 9 10 9 6 0 10 -7 10 -16z m45 -64 c3 -5 1
-10 -4 -10 -6 0 -11 5 -11 10 0 6 2 10 4 10 3 0 8 -4 11 -10z"/>
<path d="M3960 1650 c0 -5 5 -10 10 -10 6 0 10 5 10 10 0 6 -4 10 -10 10 -5 0
-10 -4 -10 -10z"/>
<path d="M5475 1650 c-3 -5 -1 -10 4 -10 6 0 11 5 11 10 0 6 -2 10 -4 10 -3 0
-8 -4 -11 -10z"/>
<path d="M1168 1629 c-17 -18 -17 -19 0 -19 19 0 42 18 42 32 0 14 -25 7 -42
-13z"/>
<path d="M7174 1636 c-18 -8 -35 -20 -40 -28 -6 -10 -4 -10 10 1 9 8 38 20 64
27 30 8 38 13 22 13 -14 0 -39 -6 -56 -13z"/>
<path d="M3925 1630 c-3 -5 -2 -10 4 -10 5 0 13 5 16 10 3 6 2 10 -4 10 -5 0
-13 -4 -16 -10z"/>
<path d="M3993 1627 c3 -8 1 -20 -4 -28 -7 -11 -9 -11 -9 4 0 9 -4 17 -10 17
-15 0 -12 -16 5 -30 8 -7 15 -9 15 -5 0 5 9 0 19 -9 27 -25 36 -3 14 34 -17
30 -40 42 -30 17z"/>
<path d="M6927 1634 c-4 -4 -7 -14 -7 -23 0 -11 3 -12 11 -4 6 6 10 16 7 23
-2 6 -7 8 -11 4z"/>
<path d="M7268 1633 c7 -3 16 -2 19 1 4 3 -2 6 -13 5 -11 0 -14 -3 -6 -6z"/>
<path d="M7387 1620 c19 -22 26 -21 17 4 -3 9 -12 16 -20 16 -11 0 -10 -4 3
-20z"/>
<path d="M3768 1623 c12 -2 32 -2 45 0 12 2 2 4 -23 4 -25 0 -35 -2 -22 -4z"/>
<path d="M4663 1623 c15 -2 37 -2 50 0 12 2 0 4 -28 4 -27 0 -38 -2 -22 -4z"/>
<path d="M988 1613 c7 -3 16 -2 19 1 4 3 -2 6 -13 5 -11 0 -14 -3 -6 -6z"/>
<path d="M3445 1594 c-19 -14 -20 -26 -19 -166 1 -106 5 -153 14 -158 9 -6 9
-12 0 -30 -9 -17 -9 -28 0 -50 6 -15 11 -34 10 -41 -5 -35 1 -79 11 -79 6 0 9
6 6 14 -3 7 -1 31 3 52 5 22 6 40 1 42 -10 3 -1 62 10 62 4 0 9 -17 11 -37 2
-22 9 -38 18 -40 12 -4 12 -3 2 5 -11 7 -11 10 2 15 21 8 21 -16 1 -33 -8 -7
-12 -17 -9 -22 3 -5 13 -1 21 9 8 10 12 14 10 8 -2 -5 6 -20 19 -32 17 -17 25
-20 31 -10 4 6 10 93 13 192 4 136 9 187 21 211 15 29 15 30 -5 33 -66 9 -71
7 -73 -24 -2 -33 -12 -140 -15 -167 -1 -9 -6 -14 -11 -11 -5 3 -7 14 -4 24 3
10 1 21 -3 24 -5 3 -9 27 -8 53 0 73 -2 79 -16 47 -13 -30 -13 -30 -15 -5 -1
14 -2 49 -2 78 0 28 -1 52 -2 52 -1 0 -11 -7 -22 -16z m145 -70 c0 -8 -19 -13
-24 -6 -3 5 1 9 9 9 8 0 15 -2 15 -3z m-143 -111 c-3 -10 -5 -4 -5 12 0 17 2
24 5 18 2 -7 2 -21 0 -30z m43 17 c0 -11 -4 -20 -8 -20 -4 0 -8 9 -9 20 -1 11
2 20 8 20 5 0 9 -9 9 -20z m15 -50 c3 -5 -1 -10 -9 -10 -11 0 -13 -7 -7 -27 4
-16 4 -44 0 -63 -3 -19 -7 -28 -8 -20 -5 37 -7 116 -4 123 6 10 21 9 28 -3z
m29 -151 c-3 -6 0 -15 7 -20 11 -7 11 -9 -2 -9 -13 0 -17 9 -17 37 0 29 2 33
10 20 5 -9 6 -22 2 -28z"/>
<path d="M6943 1585 c0 -8 4 -12 9 -9 5 3 6 10 3 15 -9 13 -12 11 -12 -6z"/>
<path d="M3927 1555 c16 -25 19 -62 23 -297 5 -244 7 -269 24 -285 13 -13 20
-15 23 -5 3 6 9 10 14 6 5 -3 9 -1 9 5 0 5 -5 13 -11 16 -6 4 -8 13 -5 20 2 7
2 16 -2 20 -10 10 -11 66 -1 59 5 -3 9 2 9 10 0 9 -4 16 -10 16 -5 0 -3 19 5
41 19 54 19 73 0 65 -14 -5 -14 -4 0 16 10 16 15 44 14 93 -1 48 -3 61 -8 40
-5 -24 -8 -26 -13 -12 -8 19 -1 47 12 47 4 0 11 8 14 17 4 10 4 14 0 10 -10
-10 -34 13 -33 32 0 12 2 11 9 -4 7 -18 8 -18 15 8 4 16 3 33 -4 41 -6 7 -7
16 -3 21 4 4 -3 2 -15 -4 -15 -8 -23 -8 -23 -1 0 5 -5 10 -11 10 -6 0 -20 10
-30 23 l-20 22 18 -30z m73 -51 c0 -8 -5 -12 -10 -9 -6 4 -8 11 -5 16 9 14 15
11 15 -7z"/>
<path d="M1366 1547 c3 -10 9 -15 12 -12 3 3 0 11 -7 18 -10 9 -11 8 -5 -6z"/>
<path d="M3495 1550 c-3 -5 -1 -10 4 -10 6 0 11 5 11 10 0 6 -2 10 -4 10 -3 0
-8 -4 -11 -10z"/>
<path d="M3975 1550 c3 -5 8 -10 11 -10 2 0 4 5 4 10 0 6 -5 10 -11 10 -5 0
-7 -4 -4 -10z"/>
<path d="M5415 1530 c4 -6 11 -8 16 -5 14 9 11 15 -7 15 -8 0 -12 -5 -9 -10z"/>
<path d="M6073 1518 c-16 -33 -33 -88 -27 -88 6 0 25 51 23 64 0 5 5 12 11 16
7 4 11 13 8 20 -2 7 -9 2 -15 -12z"/>
<path d="M2710 1477 c0 -10 8 -13 26 -9 20 4 25 1 22 -9 -3 -8 -13 -13 -22
-13 -18 2 -20 -4 -7 -24 7 -11 9 -11 14 2 4 9 13 13 22 10 9 -4 14 -13 10 -21
-3 -10 -1 -13 9 -10 18 7 36 -11 29 -29 -3 -9 1 -14 12 -14 9 0 14 -4 10 -9
-3 -6 1 -13 8 -18 7 -4 16 -16 20 -26 5 -12 3 -16 -5 -11 -8 5 -9 2 -5 -10 4
-10 7 -26 7 -37 0 -10 5 -19 10 -19 6 0 10 7 10 15 0 8 7 15 15 15 18 0 12 33
-18 98 -29 64 -167 162 -167 119z"/>
<path d="M2530 1460 c0 -5 5 -10 10 -10 6 0 10 5 10 10 0 6 -4 10 -10 10 -5 0
-10 -4 -10 -10z"/>
<path d="M2670 1410 c-11 -7 -7 -10 18 -10 20 0 31 4 27 10 -8 13 -26 13 -45
0z"/>
<path d="M2690 1383 c0 -1 11 -19 25 -39 30 -44 31 -85 5 -139 -42 -87 -60
-93 -291 -97 -140 -1 -176 -5 -172 -15 3 -7 -1 -13 -8 -13 -11 0 -11 -3 1 -10
20 -13 33 -12 24 2 -5 7 -3 8 6 3 8 -5 18 -2 26 9 8 11 14 13 19 7 3 -6 1 -11
-5 -11 -7 0 -6 -5 2 -14 11 -12 17 -11 40 5 32 23 39 24 32 4 -4 -8 -1 -15 6
-15 7 0 19 -8 27 -17 13 -16 13 -16 4 4 -15 31 -14 35 9 21 16 -11 22 -9 34 7
15 19 15 19 16 1 0 -11 3 -16 7 -13 3 4 12 -1 19 -11 11 -14 15 -15 26 -3 7 8
8 11 2 8 -7 -4 -14 0 -17 7 -4 9 1 15 11 15 9 0 24 1 32 3 8 2 15 -1 15 -7 0
-5 -5 -9 -12 -9 -6 1 -9 -5 -6 -12 3 -9 10 -11 17 -6 6 5 23 12 39 16 15 3 27
11 27 16 0 6 7 10 15 10 8 0 15 7 15 16 0 8 5 12 10 9 6 -4 8 -11 5 -16 -4 -5
1 -9 10 -9 11 0 14 7 11 25 -4 20 -1 25 15 25 11 0 17 4 14 10 -8 12 26 59 43
60 6 0 12 7 12 16 0 8 -5 12 -11 9 -5 -4 -3 10 6 31 15 38 13 70 -4 60 -5 -3
-14 1 -21 9 -10 12 -10 15 1 15 23 0 -35 35 -58 35 -13 1 -23 0 -23 -2z"/>
<path d="M8360 1312 c0 -5 7 -15 15 -22 8 -7 15 -9 15 -6 0 4 -7 14 -15 22 -8
9 -15 11 -15 6z"/>
<path d="M300 1229 c0 -8 11 -26 25 -39 32 -30 33 -10 0 27 -17 20 -24 23 -25
12z"/>
<path d="M2882 1224 c-13 -9 -32 -14 -43 -11 -25 7 -24 -5 2 -21 12 -8 18 -9
14 -3 -3 6 -1 11 5 11 6 0 9 -8 6 -17 -7 -23 10 -51 23 -38 6 7 21 95 16 95 0
0 -11 -7 -23 -16z"/>
<path d="M2825 1140 c-10 -11 -16 -23 -12 -26 9 -9 -16 -32 -29 -27 -7 2 -15
0 -19 -6 -4 -7 0 -8 11 -4 13 5 10 -3 -11 -30 -15 -21 -30 -35 -33 -33 -3 3 1
12 8 20 6 9 10 21 7 28 -4 8 -6 7 -6 -4 -1 -16 -32 -40 -56 -44 -5 0 -12 -2
-15 -3 -12 -6 -47 -12 -63 -12 -9 0 -15 -4 -12 -10 4 -5 -10 -9 -29 -9 -22 0
-36 -5 -36 -12 0 -9 -4 -8 -10 2 -7 11 -12 12 -17 4 -5 -7 -25 -10 -45 -8 -25
2 -38 -1 -38 -9 0 -8 19 -13 53 -15 137 -6 300 50 370 126 40 46 45 60 22 68
-8 4 -12 10 -9 15 10 17 -13 9 -31 -11z m23 -33 c-1 -12 -15 -33 -30 -45 -32
-27 -39 -15 -8 13 11 10 20 29 20 42 0 13 4 21 10 18 5 -3 9 -16 8 -28z"/>
<path d="M286 1123 c10 -40 14 -41 14 -5 0 18 -5 32 -10 32 -6 0 -8 -11 -4
-27z"/>
<path d="M3490 1110 c0 -5 5 -10 11 -10 5 0 7 5 4 10 -3 6 -8 10 -11 10 -2 0
-4 -4 -4 -10z"/>
<path d="M2190 1096 c0 -2 7 -6 15 -10 8 -3 15 -1 15 4 0 6 -7 10 -15 10 -8 0
-15 -2 -15 -4z"/>
<path d="M1997 1083 c-11 -10 -8 -20 8 -27 10 -4 15 1 15 14 0 20 -11 26 -23
13z"/>
<path d="M3554 1075 c22 -17 36 -19 36 -6 0 10 -24 21 -43 21 -7 0 -3 -7 7
-15z"/>
<path d="M300 1071 c0 -5 5 -13 10 -16 6 -3 10 -2 10 4 0 5 -4 13 -10 16 -5 3
-10 2 -10 -4z"/>
<path d="M2185 1070 c3 -5 11 -10 16 -10 6 0 7 5 4 10 -3 6 -11 10 -16 10 -6
0 -7 -4 -4 -10z"/>
<path d="M3156 1065 c-3 -8 -1 -15 4 -15 6 0 10 7 10 15 0 8 -2 15 -4 15 -2 0
-6 -7 -10 -15z"/>
<path d="M3210 1066 c0 -8 5 -18 10 -21 6 -3 10 -19 10 -35 0 -16 -4 -32 -10
-35 -5 -3 -10 -15 -10 -26 0 -16 3 -18 18 -10 12 7 17 23 17 60 1 29 -3 49
-10 48 -5 -1 -9 6 -7 16 2 9 -2 17 -8 17 -5 0 -10 -6 -10 -14z"/>
<path d="M7807 1049 c7 -7 15 -10 18 -7 3 3 -2 9 -12 12 -14 6 -15 5 -6 -5z"/>
<path d="M2477 1039 c7 -7 15 -10 18 -7 3 3 -2 9 -12 12 -14 6 -15 5 -6 -5z"/>
<path d="M330 1026 c30 -39 146 -100 125 -66 -3 6 -15 10 -26 10 -11 0 -22 7
-25 15 -4 8 -10 13 -14 10 -5 -3 -23 7 -42 22 -18 15 -26 19 -18 9z"/>
<path d="M685 1030 c-3 -5 -1 -10 4 -10 6 0 11 5 11 10 0 6 -2 10 -4 10 -3 0
-8 -4 -11 -10z"/>
<path d="M3166 1030 c-16 -5 -17 -8 -6 -15 8 -5 15 -4 18 3 2 6 10 8 18 5 8
-3 14 -3 14 0 0 10 -25 14 -44 7z"/>
<path d="M3570 1026 c0 -8 4 -17 8 -20 4 -2 8 4 8 15 0 10 -4 19 -8 19 -4 0
-8 -6 -8 -14z"/>
<path d="M4340 1031 c0 -6 5 -13 10 -16 6 -3 10 1 10 9 0 9 -4 16 -10 16 -5 0
-10 -4 -10 -9z"/>
<path d="M6965 1030 c-3 -5 -1 -10 4 -10 6 0 11 5 11 10 0 6 -2 10 -4 10 -3 0
-8 -4 -11 -10z"/>
<path d="M7786 1033 c-9 -10 -7 -25 3 -19 5 4 12 0 14 -6 4 -8 6 -7 6 4 1 19
-13 31 -23 21z"/>
<path d="M5391 1001 c-1 -27 2 -32 11 -23 8 8 8 17 0 34 -10 22 -11 21 -11
-11z"/>
<path d="M6540 995 c0 -9 5 -15 11 -13 6 2 11 8 11 13 0 5 -5 11 -11 13 -6 2
-11 -4 -11 -13z"/>
<path d="M6510 991 c0 -6 -7 -11 -16 -11 -13 0 -14 -3 -5 -14 12 -14 51 -11
51 4 0 4 -7 13 -15 20 -10 9 -15 9 -15 1z"/>
<path d="M3570 969 c0 -5 5 -7 10 -4 6 3 10 8 10 11 0 2 -4 4 -10 4 -5 0 -10
-5 -10 -11z"/>
<path d="M7010 971 c0 -6 4 -13 10 -16 6 -3 7 1 4 9 -7 18 -14 21 -14 7z"/>
<path d="M2377 963 c-10 -9 -9 -23 1 -23 5 0 9 7 9 15 0 17 -1 18 -10 8z"/>
<path d="M4888 948 c6 -6 18 -8 28 -6 14 3 12 5 -9 10 -19 3 -25 2 -19 -4z"/>
<path d="M8378 953 c7 -3 16 -2 19 1 4 3 -2 6 -13 5 -11 0 -14 -3 -6 -6z"/>
<path d="M5448 933 c7 -3 16 -2 19 1 4 3 -2 6 -13 5 -11 0 -14 -3 -6 -6z"/>
<path d="M7828 933 c7 -3 16 -2 19 1 4 3 -2 6 -13 5 -11 0 -14 -3 -6 -6z"/>
<path d="M8368 933 c7 -3 16 -2 19 1 4 3 -2 6 -13 5 -11 0 -14 -3 -6 -6z"/>
<path d="M4443 585 c0 -22 2 -30 4 -17 2 12 2 30 0 40 -3 9 -5 -1 -4 -23z"/>
<path d="M5030 601 c0 -5 5 -13 10 -16 6 -3 10 -2 10 4 0 5 -4 13 -10 16 -5 3
-10 2 -10 -4z"/>
<path d="M5220 600 c0 -5 5 -10 11 -10 5 0 7 5 4 10 -3 6 -8 10 -11 10 -2 0
-4 -4 -4 -10z"/>
<path d="M6480 600 c0 -5 5 -10 10 -10 6 0 10 5 10 10 0 6 -4 10 -10 10 -5 0
-10 -4 -10 -10z"/>
<path d="M7301 599 c-13 -5 -22 -12 -19 -14 6 -6 58 12 58 20 0 7 -11 5 -39
-6z"/>
<path d="M7780 588 c0 -13 5 -30 10 -38 7 -11 10 -5 10 23 0 20 -4 37 -10 37
-5 0 -10 -10 -10 -22z"/>
<path d="M4335 590 c-16 -4 -25 -8 -18 -9 6 0 14 -11 16 -23 l4 -23 2 23 c0
12 7 22 15 22 8 0 18 5 21 10 7 11 3 11 -40 0z"/>
<path d="M5363 593 c9 -2 23 -2 30 0 6 3 -1 5 -18 5 -16 0 -22 -2 -12 -5z"/>
<path d="M6257 573 c-11 -10 -8 -20 7 -26 10 -4 12 0 9 14 -6 21 -7 22 -16 12z"/>
<path d="M7666 544 c-5 -13 -2 -15 16 -11 12 4 29 1 37 -6 9 -6 8 -2 -3 11
-23 26 -41 28 -50 6z"/>
<path d="M4311 534 c0 -11 3 -14 6 -6 3 7 2 16 -1 19 -3 4 -6 -2 -5 -13z"/>
<path d="M6630 531 c0 -17 3 -18 25 -8 32 15 32 27 0 27 -18 0 -25 -5 -25 -19z"/>
<path d="M4485 530 c3 -5 10 -10 16 -10 5 0 9 5 9 10 0 6 -7 10 -16 10 -8 0
-12 -4 -9 -10z"/>
<path d="M4620 532 c0 -5 12 -7 28 -5 44 6 53 -8 53 -75 0 -34 5 -62 10 -62 5
0 9 28 9 61 0 47 -4 65 -17 75 -20 15 -83 19 -83 6z"/>
<path d="M5035 498 c-8 -54 -3 -110 10 -115 6 -2 10 23 10 62 0 75 12 94 50
77 23 -11 25 -17 25 -77 0 -37 4 -65 10 -65 12 0 13 120 1 139 -5 7 -29 15
-54 18 l-45 5 -7 -44z"/>
<path d="M5358 529 c32 -9 56 -43 44 -63 -2 -5 1 -7 8 -4 23 7 22 23 -4 51
-16 18 -35 27 -53 26 -28 -1 -28 -1 5 -10z"/>
<path d="M5752 517 c-59 -63 6 -177 74 -132 20 13 24 24 24 70 0 82 -50 114
-98 62z m79 -23 c9 -26 2 -81 -13 -90 -18 -11 -59 7 -70 31 -14 32 -2 74 25
84 29 11 47 3 58 -25z"/>
<path d="M6010 532 c0 -4 15 -7 33 -7 31 0 32 -1 41 -59 9 -52 8 -60 -9 -72
-10 -8 -24 -14 -31 -14 -19 0 -46 31 -40 46 3 8 1 14 -4 14 -17 0 -11 -29 11
-51 16 -16 27 -19 52 -13 18 3 35 8 40 11 10 6 9 97 -3 127 -8 22 -16 26 -50
26 -22 0 -40 -3 -40 -8z"/>
<path d="M6387 533 c-19 -5 -37 -41 -37 -71 0 -9 8 -2 17 17 9 19 25 36 35 39
10 2 18 8 18 13 0 9 -4 10 -33 2z"/>
<path d="M6768 529 c-15 -8 -18 -24 -18 -79 0 -39 3 -70 8 -70 4 0 7 30 7 67
0 62 2 68 25 80 14 7 18 13 10 13 -8 -1 -23 -5 -32 -11z"/>
<path d="M6966 533 c-9 -10 -7 -53 3 -53 11 0 21 49 11 55 -4 2 -10 2 -14 -2z"/>
<path d="M7319 514 c23 -30 20 -41 -16 -55 -14 -5 -23 -12 -19 -16 3 -3 22 2
41 13 27 14 34 23 29 39 -6 21 -31 45 -47 45 -4 0 1 -12 12 -26z"/>
<path d="M7820 530 c-12 -8 -10 -10 8 -10 13 0 20 4 17 10 -7 12 -6 12 -25 0z"/>
<path d="M7987 519 c-15 -11 -27 -28 -26 -37 0 -13 3 -11 11 6 15 31 54 39 78
17 27 -25 27 -90 1 -105 -33 -17 -50 -11 -68 23 -14 26 -18 28 -21 14 -9 -44
79 -77 108 -42 19 22 18 101 0 119 -27 26 -55 28 -83 5z"/>
<path d="M8350 511 c-35 -35 -38 -68 -9 -105 16 -20 29 -26 60 -26 29 0 39 -4
39 -16 0 -25 -31 -43 -72 -44 -21 0 -38 -4 -38 -10 0 -5 20 -10 43 -10 60 0
81 24 75 84 -3 25 -1 49 5 55 6 6 7 11 2 11 -6 0 -10 19 -10 42 0 41 -1 43
-33 46 -25 3 -39 -3 -62 -27z m78 -48 c3 -45 0 -52 -18 -58 -29 -9 -70 19 -70
48 0 37 28 69 58 65 25 -3 27 -7 30 -55z"/>
<path d="M4532 510 c14 -22 24 -19 15 5 -4 8 -11 15 -17 15 -6 0 -6 -7 2 -20z"/>
<path d="M4791 469 c-1 -75 8 -89 59 -89 44 0 60 15 60 54 l-1 31 -17 -35
c-18 -36 -54 -52 -75 -31 -5 5 -13 38 -17 73 l-7 63 -2 -66z"/>
<path d="M4880 516 c0 -8 5 -18 10 -21 6 -3 10 3 10 14 0 12 -4 21 -10 21 -5
0 -10 -6 -10 -14z"/>
<path d="M5220 455 c0 -41 3 -75 8 -75 4 0 7 34 7 75 0 41 -3 75 -7 75 -5 0
-8 -34 -8 -75z"/>
<path d="M5480 505 c0 -14 5 -25 10 -25 6 0 10 11 10 25 0 14 -4 25 -10 25 -5
0 -10 -11 -10 -25z"/>
<path d="M5587 486 c3 -25 3 -56 -1 -70 -6 -23 -12 -26 -46 -26 -38 0 -40 2
-40 29 0 17 -5 33 -12 37 -8 5 -9 2 -5 -10 4 -10 7 -26 7 -37 0 -24 43 -42 82
-34 28 7 28 7 28 81 0 41 -4 74 -9 74 -5 0 -6 -20 -4 -44z"/>
<path d="M5910 511 c0 -11 5 -23 10 -26 6 -4 10 5 10 19 0 14 -4 26 -10 26 -5
0 -10 -9 -10 -19z"/>
<path d="M6279 513 c-13 -16 -12 -17 4 -4 9 7 17 15 17 17 0 8 -8 3 -21 -13z"/>
<path d="M6480 508 c0 -19 2 -20 10 -8 13 19 13 30 0 30 -5 0 -10 -10 -10 -22z"/>
<path d="M6869 525 c-3 -5 -3 -37 0 -70 5 -50 10 -61 31 -72 27 -14 70 -9 82
10 11 17 10 65 -2 72 -6 3 -10 -4 -10 -18 0 -42 -57 -75 -77 -44 -4 6 -10 39
-13 72 -3 33 -8 56 -11 50z"/>
<path d="M7055 483 c7 -26 21 -65 30 -86 14 -34 14 -42 1 -68 -12 -25 -12 -29
0 -29 8 0 14 10 14 25 0 14 4 25 9 25 18 0 21 45 3 58 -9 7 -24 36 -32 64 -20
68 -42 77 -25 11z"/>
<path d="M7152 505 c-6 -13 -7 -27 -3 -30 5 -3 14 9 20 25 12 36 -1 40 -17 5z"/>
<path d="M7458 523 c7 -3 16 -2 19 1 4 3 -2 6 -13 5 -11 0 -14 -3 -6 -6z"/>
<path d="M7504 508 c10 -14 16 -44 16 -75 0 -33 4 -53 11 -53 14 0 3 118 -13
137 -18 22 -30 14 -14 -9z"/>
<path d="M7860 520 c0 -5 4 -10 9 -10 13 0 34 -58 27 -75 -3 -9 -2 -13 4 -10
23 14 2 105 -25 105 -8 0 -15 -4 -15 -10z"/>
<path d="M8162 518 c-13 -13 -17 -138 -4 -138 4 0 8 27 8 60 0 32 7 66 14 75
15 18 0 21 -18 3z"/>
<path d="M8241 456 c-2 -65 0 -76 15 -76 14 0 16 8 10 67 -9 94 -23 99 -25 9z"/>
<path d="M7780 456 c0 -82 17 -95 22 -19 4 62 1 83 -13 83 -5 0 -9 -29 -9 -64z"/>
<path d="M7237 503 c-4 -3 -7 -13 -7 -22 1 -13 3 -13 11 2 11 19 8 33 -4 20z"/>
<path d="M5300 485 c0 -8 2 -15 4 -15 2 0 6 7 10 15 3 8 1 15 -4 15 -6 0 -10
-7 -10 -15z"/>
<path d="M7417 493 c-4 -3 -7 -11 -7 -17 0 -6 5 -5 12 2 6 6 9 14 7 17 -3 3
-9 2 -12 -2z"/>
<path d="M6252 439 c5 -53 19 -76 37 -64 8 4 7 13 -4 28 -8 12 -15 36 -15 54
0 18 -5 33 -11 33 -8 0 -10 -17 -7 -51z"/>
<path d="M6646 477 c3 -10 9 -15 12 -12 3 3 0 11 -7 18 -10 9 -11 8 -5 -6z"/>
<path d="M4648 463 c7 -3 16 -2 19 1 4 3 -2 6 -13 5 -11 0 -14 -3 -6 -6z"/>
<path d="M6485 448 c-10 -48 -10 -61 3 -65 8 -3 12 9 12 41 0 49 -7 60 -15 24z"/>
<path d="M6630 453 c0 -11 7 -23 15 -27 19 -7 19 3 0 28 -15 19 -15 19 -15 -1z"/>
<path d="M5910 423 c0 -32 4 -43 15 -43 19 0 19 20 0 56 l-15 29 0 -42z"/>
<path d="M6366 443 c-2 -10 -7 -28 -11 -40 -5 -17 -2 -23 9 -23 12 0 16 10 16
40 0 42 -5 51 -14 23z"/>
<path d="M7220 457 c0 -18 31 -67 49 -77 24 -12 64 -13 57 -1 -3 4 -19 11 -34
14 -18 4 -37 18 -51 39 -11 18 -21 29 -21 25z"/>
<path d="M7411 444 c0 -11 3 -14 6 -6 3 7 2 16 -1 19 -3 4 -6 -2 -5 -13z"/>
<path d="M7675 440 c-3 -5 -1 -10 4 -10 6 0 11 5 11 10 0 6 -2 10 -4 10 -3 0
-8 -4 -11 -10z"/>
<path d="M4440 410 c0 -16 4 -30 8 -30 5 0 7 14 4 30 -2 17 -6 30 -8 30 -2 0
-4 -13 -4 -30z"/>
<path d="M5300 434 c0 -21 35 -53 65 -59 23 -5 26 -4 15 4 -8 6 -23 11 -32 11
-10 0 -18 4 -18 8 0 13 -29 48 -30 36z"/>
<path d="M4317 417 c-3 -8 -2 -20 3 -26 5 -9 8 -4 8 13 0 29 -3 32 -11 13z"/>
<path d="M7680 402 c0 -17 6 -22 27 -22 14 0 24 1 22 3 -2 1 -14 11 -26 21
-23 19 -23 19 -23 -2z"/>
<path d="M6640 395 c0 -15 27 -28 41 -19 13 8 3 21 -21 27 -12 3 -20 0 -20 -8z"/>
<path d="M4620 390 c0 -5 5 -10 11 -10 5 0 7 5 4 10 -3 6 -8 10 -11 10 -2 0
-4 -4 -4 -10z"/>
<path d="M7420 390 c0 -5 5 -10 11 -10 5 0 7 5 4 10 -3 6 -8 10 -11 10 -2 0
-4 -4 -4 -10z"/>
<path d="M7890 390 c-13 -8 -12 -10 3 -10 9 0 17 5 17 10 0 12 -1 12 -20 0z"/>
<path d="M5821 339 c-13 -10 -39 -19 -58 -19 -20 0 -32 -4 -28 -10 11 -18 81
-11 99 9 26 28 16 43 -13 20z"/>
</g>
</svg>
